<svg width="22" height="22" viewBox="0 0 22 22" fill="none" xmlns="http://www.w3.org/2000/svg">
<path d="M8.24797 11.6904C8.24797 10.17 9.4805 8.9375 11.0009 8.9375C12.5213 8.9375 13.7538 10.17 13.7538 11.6904C13.7538 13.2108 12.5213 14.4434 11.0009 14.4434C9.4805 14.4434 8.24797 13.2108 8.24797 11.6904Z" fill="#333333"/>
<path fill-rule="evenodd" clip-rule="evenodd" d="M8.90838 1.375C7.81658 1.375 6.80561 1.95048 6.2482 2.88927L5.51589 4.12264L4.4729 4.125H4.46875C2.76012 4.125 1.375 5.51012 1.375 7.21875V17.5352C1.375 19.2436 2.76042 20.6286 4.46875 20.6289H17.5312C19.2399 20.6289 20.625 19.2438 20.625 17.5352V7.21875C20.625 5.51012 19.2399 4.125 17.5312 4.125H16.4854L15.7517 2.88927C15.1943 1.95048 14.1833 1.375 13.0915 1.375H8.90838ZM11.0009 6.875C8.34141 6.875 6.18547 9.03094 6.18547 11.6904C6.18547 14.3499 8.34141 16.5059 11.0009 16.5059C13.6604 16.5059 15.8163 14.3499 15.8163 11.6904C15.8163 9.03094 13.6604 6.875 11.0009 6.875Z" fill="#333333"/>
</svg>
